<?xml version="1.0" encoding="utf-8"?>
<!-- Generator: Adobe Illustrator 27.8.1, SVG Export Plug-In . SVG Version: 6.00 Build 0)  -->
<svg version="1.1" id="Layer_1" xmlns="http://www.w3.org/2000/svg" xmlns:xlink="http://www.w3.org/1999/xlink" x="0px" y="0px"
	 viewBox="0 0 318.76 170" style="enable-background:new 0 0 318.76 170;" xml:space="preserve">
<style type="text/css">
	.st0{fill:#51596C;}
	.st1{fill:#007CFF;}
</style>
<g>
	<path class="st0" d="M84.99,124.04v2.26h-5.82v3.58h4.46v2.22h-4.46v5.9h-2.8v-13.96H84.99z"/>
	<path class="st0" d="M89.01,137.47c-0.85-0.47-1.52-1.14-2.01-2.01c-0.49-0.87-0.73-1.87-0.73-3s0.25-2.13,0.75-3
		s1.18-1.54,2.05-2.01s1.83-0.71,2.9-0.71s2.03,0.24,2.9,0.71s1.55,1.14,2.05,2.01s0.75,1.87,0.75,3s-0.26,2.13-0.77,3
		c-0.51,0.87-1.21,1.54-2.08,2.01c-0.87,0.47-1.85,0.71-2.93,0.71C90.83,138.18,89.87,137.94,89.01,137.47z M93.32,135.37
		c0.45-0.25,0.8-0.62,1.07-1.11c0.27-0.49,0.4-1.09,0.4-1.8c0-1.05-0.28-1.86-0.83-2.43c-0.55-0.57-1.23-0.85-2.03-0.85
		c-0.8,0-1.47,0.28-2.01,0.85c-0.54,0.57-0.81,1.38-0.81,2.43c0,1.05,0.26,1.86,0.79,2.43c0.53,0.57,1.19,0.85,1.99,0.85
		C92.4,135.74,92.88,135.62,93.32,135.37z"/>
	<path class="st0" d="M103.94,127.26c0.58-0.33,1.24-0.5,1.99-0.5v2.94h-0.74c-0.88,0-1.54,0.21-1.99,0.62
		c-0.45,0.41-0.67,1.13-0.67,2.16V138h-2.8v-11.08h2.8v1.72C102.89,128.05,103.36,127.59,103.94,127.26z"/>
	<path class="st0" d="M124.86,128.01c0.83,0.83,1.25,2,1.25,3.49v6.5h-2.8v-6.12c0-0.87-0.22-1.53-0.66-1.99
		c-0.44-0.46-1.04-0.69-1.8-0.69c-0.76,0-1.36,0.23-1.81,0.69s-0.67,1.12-0.67,1.99V138h-2.8v-6.12c0-0.87-0.22-1.53-0.66-1.99
		s-1.04-0.69-1.8-0.69c-0.77,0-1.38,0.23-1.83,0.69c-0.45,0.46-0.67,1.12-0.67,1.99V138h-2.8v-11.08h2.8v1.34
		c0.36-0.47,0.82-0.83,1.39-1.1s1.19-0.4,1.87-0.4c0.87,0,1.64,0.18,2.32,0.55c0.68,0.37,1.21,0.89,1.58,1.57
		c0.36-0.64,0.88-1.15,1.57-1.54c0.69-0.39,1.43-0.58,2.23-0.58C122.93,126.76,124.03,127.18,124.86,128.01z"/>
	<path class="st0" d="M135.33,137.69c-0.72-0.33-1.29-0.77-1.71-1.33c-0.42-0.56-0.65-1.18-0.69-1.86h2.82
		c0.05,0.43,0.26,0.78,0.63,1.06c0.37,0.28,0.82,0.42,1.37,0.42c0.53,0,0.95-0.11,1.25-0.32c0.3-0.21,0.45-0.49,0.45-0.82
		c0-0.36-0.18-0.63-0.55-0.81c-0.37-0.18-0.95-0.38-1.75-0.59c-0.83-0.2-1.5-0.41-2.03-0.62c-0.53-0.21-0.98-0.54-1.36-0.98
		c-0.38-0.44-0.57-1.03-0.57-1.78c0-0.61,0.18-1.17,0.53-1.68c0.35-0.51,0.86-0.91,1.52-1.2c0.66-0.29,1.44-0.44,2.33-0.44
		c1.32,0,2.37,0.33,3.16,0.99c0.79,0.66,1.22,1.55,1.3,2.67h-2.68c-0.04-0.44-0.22-0.79-0.55-1.05c-0.33-0.26-0.76-0.39-1.31-0.39
		c-0.51,0-0.9,0.09-1.17,0.28c-0.27,0.19-0.41,0.45-0.41,0.78c0,0.37,0.19,0.66,0.56,0.85c0.37,0.19,0.95,0.39,1.74,0.59
		c0.8,0.2,1.46,0.41,1.98,0.62s0.97,0.54,1.35,0.99c0.38,0.45,0.58,1.04,0.59,1.77c0,0.64-0.18,1.21-0.53,1.72
		c-0.35,0.51-0.86,0.9-1.52,1.19c-0.66,0.29-1.43,0.43-2.31,0.43C136.87,138.18,136.05,138.02,135.33,137.69z"/>
	<path class="st0" d="M154.89,126.92V138h-2.82v-1.4c-0.36,0.48-0.83,0.86-1.41,1.13s-1.21,0.41-1.89,0.41
		c-0.87,0-1.63-0.18-2.3-0.55c-0.67-0.37-1.19-0.91-1.57-1.62s-0.57-1.56-0.57-2.55v-6.5h2.8v6.1c0,0.88,0.22,1.56,0.66,2.03
		c0.44,0.47,1.04,0.71,1.8,0.71c0.77,0,1.38-0.24,1.82-0.71c0.44-0.47,0.66-1.15,0.66-2.03v-6.1H154.89z"/>
	<path class="st0" d="M161.94,127.24c0.63-0.33,1.36-0.5,2.17-0.5c0.95,0,1.8,0.23,2.57,0.7c0.77,0.47,1.37,1.13,1.82,1.99
		c0.45,0.86,0.67,1.86,0.67,2.99c0,1.13-0.22,2.14-0.67,3.01c-0.45,0.87-1.05,1.55-1.82,2.03s-1.62,0.72-2.57,0.72
		c-0.83,0-1.55-0.16-2.17-0.49s-1.12-0.75-1.49-1.27V138h-2.8v-14.8h2.8v5.34C160.81,128.01,161.31,127.57,161.94,127.24z
		 M165.9,130.69c-0.27-0.49-0.63-0.86-1.08-1.11s-0.93-0.38-1.45-0.38c-0.51,0-0.98,0.13-1.43,0.39c-0.45,0.26-0.81,0.64-1.08,1.13
		s-0.41,1.07-0.41,1.74c0,0.67,0.14,1.25,0.41,1.74s0.63,0.87,1.08,1.13c0.45,0.26,0.92,0.39,1.43,0.39c0.52,0,1-0.13,1.45-0.4
		c0.45-0.27,0.81-0.65,1.08-1.14s0.41-1.08,0.41-1.76C166.31,131.75,166.18,131.18,165.9,130.69z"/>
	<path class="st0" d="M188.26,128.01c0.83,0.83,1.25,2,1.25,3.49v6.5h-2.8v-6.12c0-0.87-0.22-1.53-0.66-1.99
		c-0.44-0.46-1.04-0.69-1.8-0.69s-1.36,0.23-1.81,0.69c-0.45,0.46-0.67,1.12-0.67,1.99V138h-2.8v-6.12c0-0.87-0.22-1.53-0.66-1.99
		c-0.44-0.46-1.04-0.69-1.8-0.69c-0.77,0-1.38,0.23-1.83,0.69c-0.45,0.46-0.67,1.12-0.67,1.99V138h-2.8v-11.08h2.8v1.34
		c0.36-0.47,0.82-0.83,1.39-1.1c0.57-0.27,1.19-0.4,1.87-0.4c0.87,0,1.64,0.18,2.32,0.55c0.68,0.37,1.21,0.89,1.58,1.57
		c0.36-0.64,0.88-1.15,1.57-1.54c0.69-0.39,1.43-0.58,2.23-0.58C186.33,126.76,187.43,127.18,188.26,128.01z"/>
	<path class="st0" d="M192.36,125.13c-0.33-0.31-0.49-0.7-0.49-1.17c0-0.47,0.16-0.86,0.49-1.17c0.33-0.31,0.74-0.47,1.23-0.47
		s0.9,0.16,1.23,0.47c0.33,0.31,0.49,0.7,0.49,1.17c0,0.47-0.16,0.86-0.49,1.17c-0.33,0.31-0.74,0.47-1.23,0.47
		S192.69,125.44,192.36,125.13z M194.97,126.92V138h-2.8v-11.08H194.97z"/>
	<path class="st0" d="M200.99,129.22v5.36c0,0.37,0.09,0.64,0.27,0.81s0.48,0.25,0.91,0.25h1.3V138h-1.76
		c-2.36,0-3.54-1.15-3.54-3.44v-5.34h-1.32v-2.3h1.32v-2.74h2.82v2.74h2.48v2.3H200.99z"/>
	<path class="st0" d="M208.75,129.22v5.36c0,0.37,0.09,0.64,0.27,0.81s0.48,0.25,0.91,0.25h1.3V138h-1.76
		c-2.36,0-3.54-1.15-3.54-3.44v-5.34h-1.32v-2.3h1.32v-2.74h2.82v2.74h2.48v2.3H208.75z"/>
	<path class="st0" d="M223.47,133.3h-8.1c0.07,0.8,0.35,1.43,0.84,1.88s1.1,0.68,1.82,0.68c1.04,0,1.78-0.45,2.22-1.34h3.02
		c-0.32,1.07-0.93,1.94-1.84,2.63c-0.91,0.69-2.02,1.03-3.34,1.03c-1.07,0-2.02-0.24-2.87-0.71s-1.51-1.14-1.98-2.01
		c-0.47-0.87-0.71-1.87-0.71-3c0-1.15,0.23-2.15,0.7-3.02c0.47-0.87,1.12-1.53,1.96-2c0.84-0.47,1.81-0.7,2.9-0.7
		c1.05,0,2,0.23,2.83,0.68c0.83,0.45,1.48,1.1,1.94,1.93c0.46,0.83,0.69,1.79,0.69,2.87C223.55,132.62,223.53,132.98,223.47,133.3z
		 M220.65,131.42c-0.01-0.72-0.27-1.3-0.78-1.73c-0.51-0.43-1.13-0.65-1.86-0.65c-0.69,0-1.28,0.21-1.75,0.63
		c-0.47,0.42-0.76,1-0.87,1.75H220.65z"/>
	<path class="st0" d="M225.54,129.44c0.45-0.87,1.06-1.53,1.83-2c0.77-0.47,1.63-0.7,2.58-0.7c0.72,0,1.41,0.16,2.06,0.47
		c0.65,0.31,1.17,0.73,1.56,1.25v-5.26h2.84V138h-2.84v-1.64c-0.35,0.55-0.83,0.99-1.46,1.32c-0.63,0.33-1.35,0.5-2.18,0.5
		c-0.93,0-1.79-0.24-2.56-0.72s-1.38-1.16-1.83-2.03c-0.45-0.87-0.67-1.88-0.67-3.01C224.87,131.3,225.1,130.31,225.54,129.44z
		 M233.19,130.71c-0.27-0.49-0.63-0.86-1.08-1.12c-0.45-0.26-0.94-0.39-1.46-0.39c-0.52,0-1,0.13-1.44,0.38s-0.8,0.62-1.07,1.11
		c-0.27,0.49-0.41,1.06-0.41,1.73c0,0.67,0.14,1.25,0.41,1.75s0.63,0.88,1.08,1.15c0.45,0.27,0.92,0.4,1.43,0.4
		c0.52,0,1.01-0.13,1.46-0.39c0.45-0.26,0.81-0.63,1.08-1.12c0.27-0.49,0.4-1.07,0.4-1.75S233.46,131.2,233.19,130.71z"/>
	<path class="st0" d="M240.08,137.67c-0.33-0.31-0.49-0.7-0.49-1.17s0.16-0.86,0.49-1.17c0.33-0.31,0.74-0.47,1.25-0.47
		c0.49,0,0.9,0.16,1.22,0.47c0.32,0.31,0.48,0.7,0.48,1.17s-0.16,0.86-0.48,1.17c-0.32,0.31-0.73,0.47-1.22,0.47
		C240.82,138.14,240.41,137.98,240.08,137.67z M242.77,123.8l-0.32,9.66h-2.36l-0.34-9.66H242.77z"/>
	<path class="st0" d="M6.49,161.23c-1.07-0.61-1.91-1.45-2.53-2.54c-0.62-1.09-0.93-2.31-0.93-3.67s0.31-2.58,0.93-3.67
		c0.62-1.09,1.46-1.93,2.53-2.54c1.07-0.61,2.25-0.91,3.54-0.91c1.31,0,2.49,0.3,3.56,0.91c1.07,0.61,1.91,1.45,2.52,2.53
		s0.92,2.31,0.92,3.68c0,1.37-0.31,2.6-0.92,3.68c-0.61,1.08-1.45,1.92-2.52,2.53c-1.07,0.61-2.25,0.91-3.56,0.91
		C8.74,162.14,7.56,161.84,6.49,161.23z M12.66,159.88c0.78-0.45,1.39-1.1,1.84-1.94c0.45-0.84,0.67-1.81,0.67-2.92
		c0-1.12-0.22-2.1-0.67-2.93c-0.45-0.83-1.06-1.48-1.83-1.93c-0.77-0.45-1.65-0.68-2.64-0.68s-1.87,0.23-2.64,0.68
		c-0.77,0.45-1.38,1.1-1.83,1.93c-0.45,0.83-0.67,1.81-0.67,2.93c0,1.11,0.22,2.08,0.67,2.92c0.45,0.84,1.06,1.49,1.84,1.94
		c0.78,0.45,1.66,0.68,2.63,0.68S11.88,160.33,12.66,159.88z"/>
	<path class="st0" d="M29.15,151.04V162h-1.82v-1.62c-0.35,0.56-0.83,1-1.45,1.31c-0.62,0.31-1.3,0.47-2.05,0.47
		c-0.85,0-1.62-0.18-2.3-0.53c-0.68-0.35-1.22-0.88-1.61-1.59c-0.39-0.71-0.59-1.57-0.59-2.58v-6.42h1.8v6.18
		c0,1.08,0.27,1.91,0.82,2.49c0.55,0.58,1.29,0.87,2.24,0.87c0.97,0,1.74-0.3,2.3-0.9c0.56-0.6,0.84-1.47,0.84-2.62v-6.02H29.15z"/>
	<path class="st0" d="M35.42,151.36c0.59-0.35,1.32-0.52,2.17-0.52v1.88h-0.48c-2.04,0-3.06,1.11-3.06,3.32V162h-1.82v-10.96h1.82
		v1.78C34.37,152.19,34.83,151.71,35.42,151.36z"/>
	<path class="st0" d="M47.25,152.54V159c0,0.53,0.11,0.91,0.34,1.13c0.23,0.22,0.62,0.33,1.18,0.33h1.34V162h-1.64
		c-1.01,0-1.77-0.23-2.28-0.7c-0.51-0.47-0.76-1.23-0.76-2.3v-6.46h-1.42v-1.5h1.42v-2.76h1.82v2.76h2.86v1.5H47.25z"/>
	<path class="st0" d="M62.25,157.2h-8.76c0.07,1.08,0.44,1.92,1.11,2.53c0.67,0.61,1.49,0.91,2.45,0.91c0.79,0,1.44-0.18,1.97-0.55
		c0.53-0.37,0.9-0.86,1.11-1.47h1.96c-0.29,1.05-0.88,1.91-1.76,2.57s-1.97,0.99-3.28,0.99c-1.04,0-1.97-0.23-2.79-0.7
		c-0.82-0.47-1.46-1.13-1.93-1.99c-0.47-0.86-0.7-1.86-0.7-2.99s0.23-2.13,0.68-2.98c0.45-0.85,1.09-1.51,1.91-1.97
		c0.82-0.46,1.76-0.69,2.83-0.69c1.04,0,1.96,0.23,2.76,0.68c0.8,0.45,1.42,1.08,1.85,1.87c0.43,0.79,0.65,1.69,0.65,2.69
		C62.31,156.45,62.29,156.81,62.25,157.2z M59.97,153.93c-0.31-0.5-0.72-0.88-1.25-1.14c-0.53-0.26-1.11-0.39-1.75-0.39
		c-0.92,0-1.7,0.29-2.35,0.88c-0.65,0.59-1.02,1.4-1.11,2.44h6.92C60.43,155.03,60.28,154.43,59.97,153.93z"/>
	<path class="st0" d="M64.71,153.53c0.45-0.85,1.08-1.5,1.87-1.97c0.79-0.47,1.68-0.7,2.65-0.7c0.96,0,1.79,0.21,2.5,0.62
		c0.71,0.41,1.23,0.93,1.58,1.56v-2h1.84V162h-1.84v-2.04c-0.36,0.64-0.9,1.17-1.61,1.59c-0.71,0.42-1.54,0.63-2.49,0.63
		c-0.97,0-1.85-0.24-2.64-0.72s-1.41-1.15-1.86-2.02c-0.45-0.87-0.68-1.85-0.68-2.96C64.03,155.36,64.26,154.38,64.71,153.53z
		 M72.81,154.34c-0.33-0.61-0.78-1.08-1.35-1.41c-0.57-0.33-1.19-0.49-1.87-0.49c-0.68,0-1.3,0.16-1.86,0.48
		c-0.56,0.32-1.01,0.79-1.34,1.4c-0.33,0.61-0.5,1.33-0.5,2.16c0,0.84,0.17,1.57,0.5,2.19c0.33,0.62,0.78,1.09,1.34,1.42
		c0.56,0.33,1.18,0.49,1.86,0.49c0.68,0,1.3-0.16,1.87-0.49c0.57-0.33,1.02-0.8,1.35-1.42c0.33-0.62,0.5-1.34,0.5-2.17
		S73.15,154.95,72.81,154.34z"/>
	<path class="st0" d="M93.69,151.37c0.67,0.35,1.19,0.88,1.58,1.59c0.39,0.71,0.58,1.57,0.58,2.58V162h-1.8v-6.2
		c0-1.09-0.27-1.93-0.81-2.51s-1.27-0.87-2.19-0.87c-0.95,0-1.7,0.3-2.26,0.91c-0.56,0.61-0.84,1.48-0.84,2.63V162h-1.8v-6.2
		c0-1.09-0.27-1.93-0.81-2.51s-1.27-0.87-2.19-0.87c-0.95,0-1.7,0.3-2.26,0.91c-0.56,0.61-0.84,1.48-0.84,2.63V162h-1.82v-10.96
		h1.82v1.58c0.36-0.57,0.84-1.01,1.45-1.32c0.61-0.31,1.28-0.46,2.01-0.46c0.92,0,1.73,0.21,2.44,0.62
		c0.71,0.41,1.23,1.02,1.58,1.82c0.31-0.77,0.81-1.37,1.52-1.8s1.49-0.64,2.36-0.64C92.27,150.84,93.03,151.02,93.69,151.37z"/>
	<path class="st0" d="M118.77,151.04L115.35,162h-1.88l-2.64-8.7l-2.64,8.7h-1.88l-3.44-10.96h1.86l2.52,9.2l2.72-9.2h1.86
		l2.66,9.22l2.48-9.22H118.77z"/>
	<path class="st0" d="M120.63,148.9c-0.24-0.24-0.36-0.53-0.36-0.88s0.12-0.64,0.36-0.88c0.24-0.24,0.53-0.36,0.88-0.36
		c0.33,0,0.62,0.12,0.85,0.36c0.23,0.24,0.35,0.53,0.35,0.88s-0.12,0.64-0.35,0.88c-0.23,0.24-0.52,0.36-0.85,0.36
		C121.17,149.26,120.87,149.14,120.63,148.9z M122.39,151.04V162h-1.82v-10.96H122.39z"/>
	<path class="st0" d="M127.31,147.2V162h-1.82v-14.8H127.31z"/>
	<path class="st0" d="M132.23,147.2V162h-1.82v-14.8H132.23z"/>
	<path class="st0" d="M140.67,153.53c0.45-0.85,1.08-1.5,1.89-1.97c0.81-0.47,1.73-0.7,2.77-0.7c1.35,0,2.46,0.33,3.33,0.98
		c0.87,0.65,1.45,1.56,1.73,2.72h-1.96c-0.19-0.67-0.55-1.19-1.09-1.58s-1.21-0.58-2.01-0.58c-1.04,0-1.88,0.36-2.52,1.07
		c-0.64,0.71-0.96,1.72-0.96,3.03c0,1.32,0.32,2.34,0.96,3.06c0.64,0.72,1.48,1.08,2.52,1.08c0.8,0,1.47-0.19,2-0.56
		c0.53-0.37,0.9-0.91,1.1-1.6h1.96c-0.29,1.12-0.88,2.02-1.76,2.69c-0.88,0.67-1.98,1.01-3.3,1.01c-1.04,0-1.96-0.23-2.77-0.7
		c-0.81-0.47-1.44-1.13-1.89-1.98c-0.45-0.85-0.68-1.85-0.68-3C139.99,155.37,140.22,154.38,140.67,153.53z"/>
	<path class="st0" d="M154.8,161.48c-0.83-0.47-1.49-1.13-1.96-1.99c-0.47-0.86-0.71-1.86-0.71-2.99c0-1.12,0.24-2.11,0.73-2.97
		c0.49-0.86,1.15-1.52,1.99-1.98c0.84-0.46,1.78-0.69,2.82-0.69c1.04,0,1.98,0.23,2.82,0.69s1.5,1.12,1.99,1.97
		c0.49,0.85,0.73,1.85,0.73,2.98s-0.25,2.13-0.75,2.99c-0.5,0.86-1.18,1.52-2.03,1.99c-0.85,0.47-1.8,0.7-2.84,0.7
		C156.56,162.18,155.64,161.95,154.8,161.48z M159.43,160.12c0.57-0.31,1.04-0.77,1.39-1.38s0.53-1.36,0.53-2.24
		s-0.17-1.63-0.52-2.24c-0.35-0.61-0.8-1.07-1.36-1.37c-0.56-0.3-1.17-0.45-1.82-0.45c-0.67,0-1.28,0.15-1.83,0.45
		c-0.55,0.3-1,0.76-1.33,1.37c-0.33,0.61-0.5,1.36-0.5,2.24c0,0.89,0.16,1.65,0.49,2.26c0.33,0.61,0.76,1.07,1.31,1.37
		c0.55,0.3,1.15,0.45,1.8,0.45S158.86,160.43,159.43,160.12z"/>
	<path class="st0" d="M174.19,152.05c0.83,0.81,1.24,1.97,1.24,3.49V162h-1.8v-6.2c0-1.09-0.27-1.93-0.82-2.51
		c-0.55-0.58-1.29-0.87-2.24-0.87c-0.96,0-1.72,0.3-2.29,0.9c-0.57,0.6-0.85,1.47-0.85,2.62V162h-1.82v-10.96h1.82v1.56
		c0.36-0.56,0.85-0.99,1.47-1.3c0.62-0.31,1.3-0.46,2.05-0.46C172.29,150.84,173.37,151.24,174.19,152.05z"/>
	<path class="st0" d="M180.63,152.54V159c0,0.53,0.11,0.91,0.34,1.13c0.23,0.22,0.62,0.33,1.18,0.33h1.34V162h-1.64
		c-1.01,0-1.77-0.23-2.28-0.7c-0.51-0.47-0.76-1.23-0.76-2.3v-6.46h-1.42v-1.5h1.42v-2.76h1.82v2.76h2.86v1.5H180.63z"/>
	<path class="st0" d="M185.69,153.53c0.45-0.85,1.08-1.5,1.87-1.97c0.79-0.47,1.68-0.7,2.65-0.7c0.96,0,1.79,0.21,2.5,0.62
		c0.71,0.41,1.23,0.93,1.58,1.56v-2h1.84V162h-1.84v-2.04c-0.36,0.64-0.9,1.17-1.61,1.59c-0.71,0.42-1.54,0.63-2.49,0.63
		c-0.97,0-1.85-0.24-2.64-0.72c-0.79-0.48-1.41-1.15-1.86-2.02s-0.68-1.85-0.68-2.96C185.01,155.36,185.24,154.38,185.69,153.53z
		 M193.79,154.34c-0.33-0.61-0.78-1.08-1.35-1.41c-0.57-0.33-1.19-0.49-1.87-0.49s-1.3,0.16-1.86,0.48
		c-0.56,0.32-1.01,0.79-1.34,1.4c-0.33,0.61-0.5,1.33-0.5,2.16c0,0.84,0.17,1.57,0.5,2.19s0.78,1.09,1.34,1.42
		c0.56,0.33,1.18,0.49,1.86,0.49s1.3-0.16,1.87-0.49c0.57-0.33,1.02-0.8,1.35-1.42s0.5-1.34,0.5-2.17S194.13,154.95,193.79,154.34z"
		/>
	<path class="st0" d="M199.21,153.53c0.45-0.85,1.08-1.5,1.89-1.97s1.73-0.7,2.77-0.7c1.35,0,2.46,0.33,3.33,0.98
		c0.87,0.65,1.45,1.56,1.73,2.72h-1.96c-0.19-0.67-0.55-1.19-1.09-1.58s-1.21-0.58-2.01-0.58c-1.04,0-1.88,0.36-2.52,1.07
		c-0.64,0.71-0.96,1.72-0.96,3.03c0,1.32,0.32,2.34,0.96,3.06c0.64,0.72,1.48,1.08,2.52,1.08c0.8,0,1.47-0.19,2-0.56
		c0.53-0.37,0.9-0.91,1.1-1.6h1.96c-0.29,1.12-0.88,2.02-1.76,2.69c-0.88,0.67-1.98,1.01-3.3,1.01c-1.04,0-1.96-0.23-2.77-0.7
		c-0.81-0.47-1.44-1.13-1.89-1.98c-0.45-0.85-0.68-1.85-0.68-3C198.53,155.37,198.76,154.38,199.21,153.53z"/>
	<path class="st0" d="M213.57,152.54V159c0,0.53,0.11,0.91,0.34,1.13c0.23,0.22,0.62,0.33,1.18,0.33h1.34V162h-1.64
		c-1.01,0-1.77-0.23-2.28-0.7c-0.51-0.47-0.76-1.23-0.76-2.3v-6.46h-1.42v-1.5h1.42v-2.76h1.82v2.76h2.86v1.5H213.57z"/>
	<path class="st0" d="M233.41,151.04l-6.6,16.12h-1.88l2.16-5.28l-4.42-10.84h2.02l3.44,8.88l3.4-8.88H233.41z"/>
	<path class="st0" d="M237.22,161.48c-0.83-0.47-1.49-1.13-1.96-1.99c-0.47-0.86-0.71-1.86-0.71-2.99c0-1.12,0.24-2.11,0.73-2.97
		c0.49-0.86,1.15-1.52,1.99-1.98s1.78-0.69,2.82-0.69s1.98,0.23,2.82,0.69s1.5,1.12,1.99,1.97c0.49,0.85,0.73,1.85,0.73,2.98
		s-0.25,2.13-0.75,2.99c-0.5,0.86-1.18,1.52-2.03,1.99c-0.85,0.47-1.8,0.7-2.84,0.7C238.98,162.18,238.06,161.95,237.22,161.48z
		 M241.85,160.12c0.57-0.31,1.04-0.77,1.39-1.38s0.53-1.36,0.53-2.24s-0.17-1.63-0.52-2.24c-0.35-0.61-0.8-1.07-1.36-1.37
		c-0.56-0.3-1.17-0.45-1.82-0.45c-0.67,0-1.28,0.15-1.83,0.45c-0.55,0.3-1,0.76-1.33,1.37c-0.33,0.61-0.5,1.36-0.5,2.24
		c0,0.89,0.16,1.65,0.49,2.26c0.33,0.61,0.76,1.07,1.31,1.37c0.55,0.3,1.15,0.45,1.8,0.45
		C240.66,160.58,241.28,160.43,241.85,160.12z"/>
	<path class="st0" d="M257.75,151.04V162h-1.82v-1.62c-0.35,0.56-0.83,1-1.45,1.31s-1.3,0.47-2.05,0.47c-0.85,0-1.62-0.18-2.3-0.53
		c-0.68-0.35-1.22-0.88-1.61-1.59c-0.39-0.71-0.59-1.57-0.59-2.58v-6.42h1.8v6.18c0,1.08,0.27,1.91,0.82,2.49s1.29,0.87,2.24,0.87
		c0.97,0,1.74-0.3,2.3-0.9c0.56-0.6,0.84-1.47,0.84-2.62v-6.02H257.75z"/>
	<path class="st0" d="M267.79,161.75c-0.67-0.29-1.19-0.69-1.58-1.2c-0.39-0.51-0.6-1.1-0.64-1.77h1.88
		c0.05,0.55,0.31,0.99,0.77,1.34s1.06,0.52,1.81,0.52c0.69,0,1.24-0.15,1.64-0.46s0.6-0.69,0.6-1.16c0-0.48-0.21-0.84-0.64-1.07
		s-1.09-0.46-1.98-0.69c-0.81-0.21-1.48-0.43-1.99-0.65c-0.51-0.22-0.95-0.55-1.32-0.98c-0.37-0.43-0.55-1-0.55-1.71
		c0-0.56,0.17-1.07,0.5-1.54c0.33-0.47,0.81-0.84,1.42-1.11c0.61-0.27,1.31-0.41,2.1-0.41c1.21,0,2.19,0.31,2.94,0.92
		c0.75,0.61,1.15,1.45,1.2,2.52h-1.82c-0.04-0.57-0.27-1.03-0.69-1.38c-0.42-0.35-0.98-0.52-1.69-0.52c-0.65,0-1.17,0.14-1.56,0.42
		c-0.39,0.28-0.58,0.65-0.58,1.1c0,0.36,0.12,0.66,0.35,0.89s0.53,0.42,0.88,0.56c0.35,0.14,0.84,0.3,1.47,0.47
		c0.79,0.21,1.43,0.42,1.92,0.63s0.92,0.52,1.27,0.93c0.35,0.41,0.54,0.95,0.55,1.62c0,0.6-0.17,1.14-0.5,1.62s-0.8,0.86-1.41,1.13
		s-1.3,0.41-2.09,0.41C269.21,162.18,268.46,162.04,267.79,161.75z"/>
	<path class="st0" d="M278.6,161.48c-0.83-0.47-1.49-1.13-1.96-1.99c-0.47-0.86-0.71-1.86-0.71-2.99c0-1.12,0.24-2.11,0.73-2.97
		c0.49-0.86,1.15-1.52,1.99-1.98s1.78-0.69,2.82-0.69s1.98,0.23,2.82,0.69s1.5,1.12,1.99,1.97c0.49,0.85,0.73,1.85,0.73,2.98
		s-0.25,2.13-0.75,2.99c-0.5,0.86-1.18,1.52-2.03,1.99c-0.85,0.47-1.8,0.7-2.84,0.7C280.37,162.18,279.44,161.95,278.6,161.48z
		 M283.23,160.12c0.57-0.31,1.04-0.77,1.39-1.38s0.53-1.36,0.53-2.24s-0.17-1.63-0.52-2.24c-0.35-0.61-0.8-1.07-1.36-1.37
		c-0.56-0.3-1.17-0.45-1.82-0.45c-0.67,0-1.28,0.15-1.83,0.45c-0.55,0.3-1,0.76-1.33,1.37c-0.33,0.61-0.5,1.36-0.5,2.24
		c0,0.89,0.16,1.65,0.49,2.26c0.33,0.61,0.76,1.07,1.31,1.37c0.55,0.3,1.15,0.45,1.8,0.45
		C282.05,160.58,282.66,160.43,283.23,160.12z"/>
	<path class="st0" d="M291.4,161.48c-0.83-0.47-1.49-1.13-1.96-1.99c-0.47-0.86-0.71-1.86-0.71-2.99c0-1.12,0.24-2.11,0.73-2.97
		c0.49-0.86,1.15-1.52,1.99-1.98s1.78-0.69,2.82-0.69s1.98,0.23,2.82,0.69s1.5,1.12,1.99,1.97c0.49,0.85,0.73,1.85,0.73,2.98
		s-0.25,2.13-0.75,2.99c-0.5,0.86-1.18,1.52-2.03,1.99c-0.85,0.47-1.8,0.7-2.84,0.7C293.17,162.18,292.24,161.95,291.4,161.48z
		 M296.03,160.12c0.57-0.31,1.04-0.77,1.39-1.38s0.53-1.36,0.53-2.24s-0.17-1.63-0.52-2.24c-0.35-0.61-0.8-1.07-1.36-1.37
		c-0.56-0.3-1.17-0.45-1.82-0.45c-0.67,0-1.28,0.15-1.83,0.45c-0.55,0.3-1,0.76-1.33,1.37c-0.33,0.61-0.5,1.36-0.5,2.24
		c0,0.89,0.16,1.65,0.49,2.26c0.33,0.61,0.76,1.07,1.31,1.37c0.55,0.3,1.15,0.45,1.8,0.45
		C294.85,160.58,295.46,160.43,296.03,160.12z"/>
	<path class="st0" d="M310.79,152.05c0.83,0.81,1.24,1.97,1.24,3.49V162h-1.8v-6.2c0-1.09-0.27-1.93-0.82-2.51
		c-0.55-0.58-1.29-0.87-2.24-0.87c-0.96,0-1.72,0.3-2.29,0.9c-0.57,0.6-0.85,1.47-0.85,2.62V162h-1.82v-10.96h1.82v1.56
		c0.36-0.56,0.85-0.99,1.47-1.3c0.62-0.31,1.3-0.46,2.05-0.46C308.88,150.84,309.96,151.24,310.79,152.05z"/>
	<path class="st0" d="M314.71,161.76c-0.24-0.24-0.36-0.53-0.36-0.88c0-0.35,0.12-0.64,0.36-0.88s0.53-0.36,0.88-0.36
		c0.33,0,0.62,0.12,0.85,0.36s0.35,0.53,0.35,0.88c0,0.35-0.12,0.64-0.35,0.88c-0.23,0.24-0.52,0.36-0.85,0.36
		C315.25,162.12,314.95,162,314.71,161.76z"/>
</g>
<g>
	<g>
		<path class="st1" d="M159.92,3.37c-28.26,0-51.26,22.99-51.26,51.26s22.99,51.26,51.26,51.26c28.26,0,51.26-22.99,51.26-51.26
			S188.19,3.37,159.92,3.37z M159.92,97.48c-23.63,0-42.86-19.22-42.86-42.86c0-23.63,19.23-42.86,42.86-42.86
			c23.63,0,42.86,19.22,42.86,42.86C202.78,78.26,183.55,97.48,159.92,97.48z"/>
		<path class="st1" d="M182.1,34.95l-30.43,30.43l-13.91-13.91c-1.64-1.64-4.3-1.64-5.94,0c-1.64,1.64-1.64,4.3,0,5.94l16.89,16.89
			c0.82,0.82,1.9,1.23,2.97,1.23s2.15-0.41,2.97-1.23l33.41-33.41c1.64-1.64,1.64-4.3,0-5.94C186.4,33.31,183.74,33.31,182.1,34.95z
			"/>
	</g>
</g>
</svg>
